# xmcd CD database file
#
# Track frame offsets:
#	150
#	15678
#	30872
#	47442
#	61251
#	77275
#	92021
#	105066
#	117993
#	128225
#
# Disc length: 1884 seconds
#
# Revision: 0
# Processed by: cddbd v1.5.2PL0 Copyright (c) Steve Scherf et al.
# Submitted via: CDex 1.51
#
DISCID=62075a0a
DTITLE=Jerry Reed - Let's Git It On
DYEAR=2006
DGENRE=Country
TTITLE0=The Jerry Springer Show
TTITLE1=Cloud 8
TTITLE2=Boys of 44
TTITLE3=Finger Dancin
TTITLE4=Wee Hours
TTITLE5=Jesus Train
TTITLE6=Secret of Success
TTITLE7=Hot Lead Bullets
TTITLE8=Foggy Bottom
TTITLE9=This Is It
EXTD=YEAR: 2006
EXTT0=
EXTT1=
EXTT2=
EXTT3=
EXTT4=
EXTT5=
EXTT6=
EXTT7=
EXTT8=
EXTT9=
PLAYORDER=
